<?xml version="1.0" encoding="utf-8" ?>
<svg xmlns="http://www.w3.org/2000/svg" viewBox="0 0 140 140" width="140" height="140">
    <path d="M20,20C20,20 55,5 57,15 57,15 60,20 58,25 58,25 40,40 70,40 70,40 100,40 82,25 82,25 80,20 83,15 83,15 85,5 120,20C120,20 105,55 115,57 115,57 120,60 125,58 125,58 140,40 140,70 140,70 140,100 125,82 125,82 120,80 115,83 115,83 105,85 120,120C120,120 85,135 83,125 83,125 80,120 82,115 82,115 100,100 70,100 70,100 40,100 58,115 58,115 60,120 57,125 57,125 55,135 20,120C20,120 35,85 25,83 25,83 20,80 15,82 15,82 0,100 0,70 0,70 0,40 15,58 15,58 20,60 25,57 25,57 35,55 20,20z" fill="#ffffff" stroke="#000000" stroke-linejoin="round" stroke-width="1" />
</svg>
